<svg width="45" height="45" viewBox="0 0 45 45" fill="none" xmlns="http://www.w3.org/2000/svg">
<path d="M39.2063 16.575L16.05 4.18124C15.5274 3.9038 14.9448 3.75873 14.3531 3.75873C13.7615 3.75873 13.1789 3.9038 12.6563 4.18124L5.81252 7.74374C5.19545 8.08189 4.67921 8.57779 4.31652 9.18076C3.95383 9.78374 3.7577 10.4722 3.74817 11.1758C3.73863 11.8794 3.91604 12.5729 4.26225 13.1855C4.60847 13.798 5.11109 14.3077 5.71877 14.6625L28.6313 27.6562C29.1878 27.9649 29.8137 28.1268 30.45 28.1268C31.0864 28.1268 31.7123 27.9649 32.2688 27.6562L39.375 23.4562C39.9702 23.0926 40.4592 22.5787 40.7929 21.9662C41.1266 21.3537 41.2933 20.6642 41.2762 19.9669C41.2591 19.2696 41.0588 18.5891 40.6955 17.9937C40.3321 17.3984 39.8185 16.9091 39.2063 16.575Z" stroke="black" stroke-width="2" stroke-linecap="round" stroke-linejoin="round"/>
<path d="M5.79376 16.575L28.95 4.18124C29.4726 3.9038 30.0552 3.75873 30.6469 3.75873C31.2385 3.75873 31.8212 3.9038 32.3438 4.18124L39.1875 7.74374C39.8096 8.07335 40.3329 8.56226 40.704 9.16045C41.0752 9.75865 41.2808 10.4447 41.2999 11.1484C41.3189 11.8521 41.1508 12.5483 40.8126 13.1657C40.4744 13.7831 39.9783 14.2997 39.375 14.6625L16.3688 27.6562C15.8123 27.9649 15.1864 28.1268 14.55 28.1268C13.9137 28.1268 13.2878 27.9649 12.7313 27.6562L5.62501 23.4562C5.02984 23.0926 4.54085 22.5787 4.20714 21.9662C3.87343 21.3537 3.70675 20.6642 3.72385 19.9669C3.74095 19.2696 3.94122 18.5891 4.30455 17.9937C4.66788 17.3984 5.18148 16.9091 5.79376 16.575Z" stroke="black" stroke-width="2" stroke-linecap="round" stroke-linejoin="round"/>
<path d="M22.5 41.25V24.375" stroke="black" stroke-width="2" stroke-linecap="round" stroke-linejoin="round"/>
<path d="M37.5 25.3125V31.6313C37.5007 32.339 37.307 33.0333 36.94 33.6384C36.5729 34.2435 36.0467 34.7361 35.4187 35.0625L24.1688 40.8375C23.6533 41.1054 23.0809 41.2452 22.5 41.2452C21.9191 41.2452 21.3467 41.1054 20.8313 40.8375L9.58125 35.0625C8.95328 34.7361 8.42706 34.2435 8.06003 33.6384C7.69299 33.0333 7.49927 32.339 7.5 31.6313V25.3125" stroke="black" stroke-width="2" stroke-linecap="round" stroke-linejoin="round"/>
</svg>
