<svg width="272" height="45" viewBox="0 0 272 45" fill="none" xmlns="http://www.w3.org/2000/svg">
<path d="M39.2063 16.575L16.05 4.18124C15.5274 3.9038 14.9448 3.75873 14.3531 3.75873C13.7615 3.75873 13.1789 3.9038 12.6563 4.18124L5.81252 7.74374C5.19545 8.08189 4.67921 8.57779 4.31652 9.18076C3.95383 9.78374 3.7577 10.4722 3.74817 11.1758C3.73863 11.8794 3.91604 12.5729 4.26225 13.1855C4.60847 13.798 5.11109 14.3077 5.71877 14.6625L28.6313 27.6562C29.1878 27.9649 29.8137 28.1268 30.45 28.1268C31.0864 28.1268 31.7123 27.9649 32.2688 27.6562L39.375 23.4562C39.9702 23.0926 40.4592 22.5787 40.7929 21.9662C41.1266 21.3537 41.2933 20.6642 41.2762 19.9669C41.2591 19.2696 41.0588 18.5891 40.6955 17.9937C40.3321 17.3984 39.8185 16.9091 39.2063 16.575Z" stroke="black" stroke-width="2" stroke-linecap="round" stroke-linejoin="round"/>
<path d="M5.79376 16.575L28.95 4.18124C29.4726 3.9038 30.0552 3.75873 30.6469 3.75873C31.2385 3.75873 31.8212 3.9038 32.3438 4.18124L39.1875 7.74374C39.8096 8.07335 40.3329 8.56226 40.704 9.16045C41.0752 9.75865 41.2808 10.4447 41.2999 11.1484C41.3189 11.8521 41.1508 12.5483 40.8126 13.1657C40.4744 13.7831 39.9783 14.2997 39.375 14.6625L16.3688 27.6562C15.8123 27.9649 15.1864 28.1268 14.55 28.1268C13.9137 28.1268 13.2878 27.9649 12.7313 27.6562L5.62501 23.4562C5.02984 23.0926 4.54085 22.5787 4.20714 21.9662C3.87343 21.3537 3.70675 20.6642 3.72385 19.9669C3.74095 19.2696 3.94122 18.5891 4.30455 17.9937C4.66788 17.3984 5.18148 16.9091 5.79376 16.575Z" stroke="black" stroke-width="2" stroke-linecap="round" stroke-linejoin="round"/>
<path d="M22.5 41.25V24.375" stroke="black" stroke-width="2" stroke-linecap="round" stroke-linejoin="round"/>
<path d="M37.5 25.3125V31.6313C37.5007 32.339 37.307 33.0333 36.94 33.6384C36.5729 34.2435 36.0467 34.7361 35.4187 35.0625L24.1688 40.8375C23.6533 41.1054 23.0809 41.2452 22.5 41.2452C21.9191 41.2452 21.3467 41.1054 20.8313 40.8375L9.58125 35.0625C8.95328 34.7361 8.42706 34.2435 8.06003 33.6384C7.69299 33.0333 7.49927 32.339 7.5 31.6313V25.3125" stroke="black" stroke-width="2" stroke-linecap="round" stroke-linejoin="round"/>
<path d="M69.032 13.272V30H66.848V13.272H69.032ZM79.1623 16.608C80.7623 16.608 82.0583 17.096 83.0503 18.072C84.0423 19.032 84.5383 20.424 84.5383 22.248V30H82.3783V22.56C82.3783 21.248 82.0503 20.248 81.3943 19.56C80.7383 18.856 79.8423 18.504 78.7063 18.504C77.5543 18.504 76.6343 18.864 75.9463 19.584C75.2743 20.304 74.9383 21.352 74.9383 22.728V30H72.7543V16.848H74.9383V18.72C75.3703 18.048 75.9543 17.528 76.6903 17.16C77.4423 16.792 78.2663 16.608 79.1623 16.608ZM93.0018 27.984L97.0818 16.848H99.4098L94.2498 30H91.7058L86.5458 16.848H88.8978L93.0018 27.984ZM113.559 22.92C113.559 23.336 113.535 23.776 113.487 24.24H102.975C103.055 25.536 103.495 26.552 104.295 27.288C105.111 28.008 106.095 28.368 107.247 28.368C108.191 28.368 108.975 28.152 109.599 27.72C110.239 27.272 110.687 26.68 110.943 25.944H113.295C112.943 27.208 112.239 28.24 111.183 29.04C110.127 29.824 108.815 30.216 107.247 30.216C105.999 30.216 104.879 29.936 103.887 29.376C102.911 28.816 102.143 28.024 101.583 27C101.023 25.96 100.743 24.76 100.743 23.4C100.743 22.04 101.015 20.848 101.559 19.824C102.103 18.8 102.863 18.016 103.839 17.472C104.831 16.912 105.967 16.632 107.247 16.632C108.495 16.632 109.599 16.904 110.559 17.448C111.519 17.992 112.255 18.744 112.767 19.704C113.295 20.648 113.559 21.72 113.559 22.92ZM111.303 22.464C111.303 21.632 111.119 20.92 110.751 20.328C110.383 19.72 109.879 19.264 109.239 18.96C108.615 18.64 107.919 18.48 107.151 18.48C106.047 18.48 105.103 18.832 104.319 19.536C103.551 20.24 103.111 21.216 102.999 22.464H111.303ZM122.85 16.608C124.45 16.608 125.746 17.096 126.738 18.072C127.73 19.032 128.226 20.424 128.226 22.248V30H126.066V22.56C126.066 21.248 125.738 20.248 125.082 19.56C124.426 18.856 123.53 18.504 122.394 18.504C121.242 18.504 120.322 18.864 119.634 19.584C118.962 20.304 118.626 21.352 118.626 22.728V30H116.442V16.848H118.626V18.72C119.058 18.048 119.642 17.528 120.378 17.16C121.13 16.792 121.954 16.608 122.85 16.608ZM134.457 18.648V26.4C134.457 27.04 134.593 27.496 134.865 27.768C135.137 28.024 135.609 28.152 136.281 28.152H137.889V30H135.921C134.705 30 133.793 29.72 133.185 29.16C132.577 28.6 132.273 27.68 132.273 26.4V18.648H130.569V16.848H132.273V13.536H134.457V16.848H137.889V18.648H134.457ZM146.272 30.216C145.04 30.216 143.92 29.936 142.912 29.376C141.92 28.816 141.136 28.024 140.56 27C140 25.96 139.72 24.76 139.72 23.4C139.72 22.056 140.008 20.872 140.584 19.848C141.176 18.808 141.976 18.016 142.984 17.472C143.992 16.912 145.12 16.632 146.368 16.632C147.616 16.632 148.744 16.912 149.752 17.472C150.76 18.016 151.552 18.8 152.128 19.824C152.72 20.848 153.016 22.04 153.016 23.4C153.016 24.76 152.712 25.96 152.104 27C151.512 28.024 150.704 28.816 149.68 29.376C148.656 29.936 147.52 30.216 146.272 30.216ZM146.272 28.296C147.056 28.296 147.792 28.112 148.48 27.744C149.168 27.376 149.72 26.824 150.136 26.088C150.568 25.352 150.784 24.456 150.784 23.4C150.784 22.344 150.576 21.448 150.16 20.712C149.744 19.976 149.2 19.432 148.528 19.08C147.856 18.712 147.128 18.528 146.344 18.528C145.544 18.528 144.808 18.712 144.136 19.08C143.48 19.432 142.952 19.976 142.552 20.712C142.152 21.448 141.952 22.344 141.952 23.4C141.952 24.472 142.144 25.376 142.528 26.112C142.928 26.848 143.456 27.4 144.112 27.768C144.768 28.12 145.488 28.296 146.272 28.296ZM158.071 18.984C158.455 18.232 158.999 17.648 159.703 17.232C160.423 16.816 161.295 16.608 162.319 16.608V18.864H161.743C159.295 18.864 158.071 20.192 158.071 22.848V30H155.887V16.848H158.071V18.984ZM176.168 16.848L168.248 36.192H165.992L168.584 29.856L163.28 16.848H165.704L169.832 27.504L173.912 16.848H176.168ZM183.946 21.624C183.946 19.992 184.314 18.528 185.05 17.232C185.786 15.92 186.786 14.896 188.05 14.16C189.33 13.424 190.746 13.056 192.298 13.056C194.122 13.056 195.714 13.496 197.074 14.376C198.434 15.256 199.426 16.504 200.05 18.12H197.434C196.97 17.112 196.298 16.336 195.418 15.792C194.554 15.248 193.514 14.976 192.298 14.976C191.13 14.976 190.082 15.248 189.154 15.792C188.226 16.336 187.498 17.112 186.97 18.12C186.442 19.112 186.178 20.28 186.178 21.624C186.178 22.952 186.442 24.12 186.97 25.128C187.498 26.12 188.226 26.888 189.154 27.432C190.082 27.976 191.13 28.248 192.298 28.248C193.514 28.248 194.554 27.984 195.418 27.456C196.298 26.912 196.97 26.136 197.434 25.128H200.05C199.426 26.728 198.434 27.968 197.074 28.848C195.714 29.712 194.122 30.144 192.298 30.144C190.746 30.144 189.33 29.784 188.05 29.064C186.786 28.328 185.786 27.312 185.05 26.016C184.314 24.72 183.946 23.256 183.946 21.624ZM209.037 30.216C207.805 30.216 206.685 29.936 205.677 29.376C204.685 28.816 203.901 28.024 203.325 27C202.765 25.96 202.485 24.76 202.485 23.4C202.485 22.056 202.773 20.872 203.349 19.848C203.941 18.808 204.741 18.016 205.749 17.472C206.757 16.912 207.885 16.632 209.133 16.632C210.381 16.632 211.509 16.912 212.517 17.472C213.525 18.016 214.317 18.8 214.893 19.824C215.485 20.848 215.781 22.04 215.781 23.4C215.781 24.76 215.477 25.96 214.869 27C214.277 28.024 213.469 28.816 212.445 29.376C211.421 29.936 210.285 30.216 209.037 30.216ZM209.037 28.296C209.821 28.296 210.557 28.112 211.245 27.744C211.933 27.376 212.485 26.824 212.901 26.088C213.333 25.352 213.549 24.456 213.549 23.4C213.549 22.344 213.341 21.448 212.925 20.712C212.509 19.976 211.965 19.432 211.293 19.08C210.621 18.712 209.893 18.528 209.109 18.528C208.309 18.528 207.573 18.712 206.901 19.08C206.245 19.432 205.717 19.976 205.317 20.712C204.917 21.448 204.717 22.344 204.717 23.4C204.717 24.472 204.909 25.376 205.293 26.112C205.693 26.848 206.221 27.4 206.877 27.768C207.533 28.12 208.253 28.296 209.037 28.296ZM225.061 16.608C226.661 16.608 227.957 17.096 228.949 18.072C229.941 19.032 230.437 20.424 230.437 22.248V30H228.277V22.56C228.277 21.248 227.949 20.248 227.293 19.56C226.637 18.856 225.741 18.504 224.605 18.504C223.453 18.504 222.533 18.864 221.845 19.584C221.173 20.304 220.837 21.352 220.837 22.728V30H218.653V16.848H220.837V18.72C221.269 18.048 221.853 17.528 222.589 17.16C223.341 16.792 224.165 16.608 225.061 16.608ZM236.668 18.648V26.4C236.668 27.04 236.804 27.496 237.076 27.768C237.348 28.024 237.82 28.152 238.492 28.152H240.1V30H238.132C236.916 30 236.004 29.72 235.396 29.16C234.788 28.6 234.484 27.68 234.484 26.4V18.648H232.78V16.848H234.484V13.536H236.668V16.848H240.1V18.648H236.668ZM244.93 18.984C245.314 18.232 245.858 17.648 246.562 17.232C247.282 16.816 248.154 16.608 249.178 16.608V18.864H248.602C246.154 18.864 244.93 20.192 244.93 22.848V30H242.746V16.848H244.93V18.984ZM257.436 30.216C256.204 30.216 255.084 29.936 254.076 29.376C253.084 28.816 252.3 28.024 251.724 27C251.164 25.96 250.884 24.76 250.884 23.4C250.884 22.056 251.172 20.872 251.748 19.848C252.34 18.808 253.14 18.016 254.148 17.472C255.156 16.912 256.284 16.632 257.532 16.632C258.78 16.632 259.908 16.912 260.916 17.472C261.924 18.016 262.716 18.8 263.292 19.824C263.884 20.848 264.18 22.04 264.18 23.4C264.18 24.76 263.876 25.96 263.268 27C262.676 28.024 261.868 28.816 260.844 29.376C259.82 29.936 258.684 30.216 257.436 30.216ZM257.436 28.296C258.22 28.296 258.956 28.112 259.644 27.744C260.332 27.376 260.884 26.824 261.3 26.088C261.732 25.352 261.948 24.456 261.948 23.4C261.948 22.344 261.74 21.448 261.324 20.712C260.908 19.976 260.364 19.432 259.692 19.08C259.02 18.712 258.292 18.528 257.508 18.528C256.708 18.528 255.972 18.712 255.3 19.08C254.644 19.432 254.116 19.976 253.716 20.712C253.316 21.448 253.116 22.344 253.116 23.4C253.116 24.472 253.308 25.376 253.692 26.112C254.092 26.848 254.62 27.4 255.276 27.768C255.932 28.12 256.652 28.296 257.436 28.296ZM269.235 12.24V30H267.051V12.24H269.235Z" fill="black"/>
</svg>
